<svg xmlns="http://www.w3.org/2000/svg" enable-background="new 0 0 66 66" viewBox="0 0 66 66" id="boy"><path fill="#F2914F" d="M59.0685,64.9907H6.9315l0.6119-11.2362c0.541-5.8443,5.5604-10.4381,11.3604-10.784
			c45.324,0,12.0581,0,28.1925,0c5.8176,0.3459,10.8105,4.9486,11.3337,10.784L59.0685,64.9907z"></path><path fill="#DD6E26" d="M31.213 64.9907h-3.6981l-8.2298-11.387 4.0173-2.4122-3.6981-2.0397c3.5965-3.7278 5.3975-6.6399 8.5491-8.1767C24.8242 44.9082 28.0052 48.6028 31.213 64.9907zM46.706 53.6037l-8.2299 11.387h-3.6981l4.3189-18.4019c.4795-2.0378.0231-4.0979-1.2593-5.6137 1.0731.5321 1.9776 1.1973 2.8468 1.9954 1.7205 1.5786 3.2813 3.6715 5.7024 6.1813l-3.6981 2.0397L46.706 53.6037z"></path><path fill="#CED7DC" d="M39.097,46.5889l-4.3189,18.4019h-3.565l-4.3189-18.4019c-0.4499-1.9122-0.0522-3.8465,0.9756-5.2501
					c0.0887-0.1242,0.1862-0.2483,0.2838-0.3636c1.6584-0.807,3.2724-1.1618,4.8421-0.9045
					c1.5786-0.2572,3.1838,0.0975,4.8421,0.9045c0.0975,0.1153,0.1951,0.2395,0.2838,0.3636
					C39.2128,42.8561,39.5286,44.7547,39.097,46.5889z"></path><path fill="#F8A771" d="M38.7113,34.359v8.2263c0,3.3579-2.4818,6.0788-5.5447,6.0788h-0.3403
			c-3.0629,0-5.5447-2.7209-5.5447-6.0788V34.359H38.7113z"></path><ellipse cx="32.996" cy="24.379" fill="#FAB687" rx="13.836" ry="16.87"></ellipse><circle cx="28.081" cy="25.899" r="1.428" fill="#3D2F46"></circle><circle cx="37.238" cy="25.899" r="1.428" fill="#3D2F46"></circle><path fill="#3D2F46" d="M29.2497 21.9879c-.0756-.3861-.45-.6378-.8361-.5622l-2.9022.5685c-.3861.0757-.6378.45-.5621.8361.0756.3861.45.6378.8361.5622l2.9022-.5685C29.0737 22.7484 29.3253 22.3741 29.2497 21.9879zM39.8073 21.9943l-2.9022-.5685c-.3861-.0756-.7604.1761-.8361.5622s.176.7604.5621.8361l2.9022.5685c.3861.0756.7604-.1761.8361-.5622C40.4451 22.4443 40.1934 22.07 39.8073 21.9943z"></path><g><path fill="#663430" d="M37.3881,35.026c-0.6615,1.6694-2.4507,2.85-4.39,2.85c-1.8764,0-3.6316-1.0787-4.37-2.78
				c-0.3-0.7,0.18-1.48,0.94-1.48h6.85C37.1481,33.616,37.6682,34.356,37.3881,35.026z"></path></g><path fill="#5F566A" d="M49.7736,18.4702c0,3.21-0.73,6.21-1.98,8.79h-2.34v-6.03c0-2.88-2.34-5.22-5.22-5.22h-14.28
			c-2.86,0-5.19,2.31-5.22,5.17l-0.05,6.08h-2.61c-1.3439-4.1108-0.8405-7.9552-1.08-12.59c-0.08-4,3.08-7.3,7.06-7.4
			C32.6675-5.1326,49.7736,2.0841,49.7736,18.4702z"></path><g><ellipse cx="45.762" cy="26.62" fill="#FAB687" rx="3.031" ry="3.913"></ellipse><ellipse cx="19.556" cy="26.62" fill="#FAB687" rx="3.031" ry="3.913"></ellipse></g><path fill="#5F566A" d="M17.1436,21.7202h-0.01v-0.18C17.1336,21.6002,17.1336,21.6602,17.1436,21.7202z"></path><path fill="#EF4F63" d="M36.1281,36.736c-1.297,1.1143-3.2995,1.5215-5.08,0.73C32.0188,35.5246,34.6461,35.15,36.1281,36.736z"></path><g><path fill="#FFF" d="M32.9026 33.616v.84c0 .11-.09.2-.2.2h-1.7239c-.11 0-.2-.09-.2-.2v-.84H32.9026zM35.2242 33.616v.84c0 .11-.09.2-.2.2h-1.7239c-.11 0-.2-.09-.2-.2v-.84H35.2242z"></path></g></svg>