<svg xmlns="http://www.w3.org/2000/svg" data-name="Layer 3" viewBox="0 0 64 64" id="customer-testimonial"><path fill="#5a5b5d" d="M45,41.268V39a7,7,0,0,1,7-7h0a7,7,0,0,1,7,7v2.271Z"></path><path fill="#77787c" d="M59,39a7,7,0,0,0-5.5-6.835A7,7,0,0,0,48,39v2.268l11,0Z"></path><path fill="#b4b5b9" d="M54,47.584V50l3.039.38A5.664,5.664,0,0,1,62,56h0v6H42V56h0a5.664,5.664,0,0,1,4.961-5.62L50,50V47.584Z"></path><path fill="#dcdddf" d="M57.039,50.38,54,50V47.584H52V50l-3.039.38A5.664,5.664,0,0,0,44,56v6H62V56A5.664,5.664,0,0,0,57.039,50.38Z"></path><polygon fill="#ecb8ad" points="54 47.58 54 50 52 54 50 50 50 47.58 54 47.58"></polygon><path fill="#fde1d5" d="M50,48.584V50l2,4,2-4V48.584a5.016,5.016,0,0,1-4,0Z"></path><path fill="#ecb8ad" d="M47 41H46a2 2 0 00-2 2h0a2 2 0 002 2h1.416M57 41h1a2 2 0 012 2h0a2 2 0 01-2 2H56.584"></path><polygon fill="#77787c" points="57.291 50.418 56 53 56 55 52 54 54 50 57.291 50.418"></polygon><polygon fill="#77787c" points="46.709 50.418 48 53 48 55 52 54 50 50 46.709 50.418"></polygon><rect width="2" height="4" x="57" y="58" fill="#5a5b5d"></rect><rect width="2" height="4" x="45" y="58" fill="#5a5b5d"></rect><path fill="#50bae3" d="M34,34.584V37l3.039.38A5.664,5.664,0,0,1,42,43h0v6H22V43h0a5.664,5.664,0,0,1,4.961-5.62L30,37V34.584Z"></path><path fill="#b5deeb" d="M37.039,37.38,34,37V34.584H32V37l-3.039.38A5.664,5.664,0,0,0,24,43v6H42V43A5.664,5.664,0,0,0,37.039,37.38Z"></path><polygon fill="#ecb8ad" points="34 34.58 34 37 32 41 30 37 30 34.58 34 34.58"></polygon><path fill="#fde1d5" d="M30,35.584V37l2,4,2-4V35.584a5.016,5.016,0,0,1-4,0Z"></path><path fill="#5a5b5d" d="M25,28.269V24a5,5,0,0,1,5-5h3a3,3,0,0,1,3,3h0a3,3,0,0,1,3,3v3.27"></path><path fill="#77787c" d="M28,24v4.269H39V25a3,3,0,0,0-3-3h0a3,3,0,0,0-3-3A5,5,0,0,0,28,24Z"></path><path fill="#ecb8ad" d="M27 28H26a2 2 0 00-2 2h0a2 2 0 002 2h1.416M37 28h1a2 2 0 012 2h0a2 2 0 01-2 2H36.584"></path><path fill="#ecb8ad" d="M37,27v3a5,5,0,0,1-5,5h0a5,5,0,0,1-5-5V27h1.838A4.387,4.387,0,0,0,33,24h0Z"></path><path fill="#fde1d5" d="M28.838,27H28v3a4.984,4.984,0,0,0,4.5,4.95A4.984,4.984,0,0,0,37,30V27l-4-3A4.387,4.387,0,0,1,28.838,27Z"></path><polygon fill="#4197cd" points="37.291 37.418 36 40 36 42 32 41 34 37 37.291 37.418"></polygon><polygon fill="#4197cd" points="26.709 37.418 28 40 28 42 32 41 30 37 26.709 37.418"></polygon><rect width="2" height="4" x="37" y="45" fill="#29678c"></rect><rect width="2" height="4" x="25" y="45" fill="#29678c"></rect><path fill="#936c42" d="M17.6,51.649a3.841,3.841,0,0,0,2.124-2.559L20,48h0a2,2,0,0,1-2-2V39a7,7,0,0,0-7-7h0a7,7,0,0,0-7,7v7a2,2,0,0,1-2,2H2l.272,1.09A3.841,3.841,0,0,0,4.4,51.649Z"></path><path fill="#ceae84" d="M18,46V39a7,7,0,0,0-5.5-6.835A7,7,0,0,0,7,39v7a2,2,0,0,1-2,2l.272,1.09A3.841,3.841,0,0,0,7.4,51.649H17.6a3.841,3.841,0,0,0,2.124-2.559L20,48A2,2,0,0,1,18,46Z"></path><path fill="#ecb8ad" d="M6 41H5a2 2 0 00-2 2H3a2 2 0 002 2H6.416M16 41h1a2 2 0 012 2h0a2 2 0 01-2 2H15.584"></path><path fill="#4f61a6" d="M9,47.583V50l-2.054.342A4.723,4.723,0,0,0,3,55H3v7H19V55h0a4.723,4.723,0,0,0-3.946-4.658L13,50V47.583Z"></path><path fill="#7383bc" d="M15.054,50.342,13,50V47.583H11V50l-2.054.342A4.723,4.723,0,0,0,5,55v7H19V55A4.723,4.723,0,0,0,15.054,50.342Z"></path><path fill="#ecb8ad" d="M16,40v3a5,5,0,0,1-5,5h0a5,5,0,0,1-5-5V40H7.838A4.387,4.387,0,0,0,12,37h0Z"></path><polygon fill="#ecb8ad" points="13 47.58 13 50 11 54 9 50 9 47.58 13 47.58"></polygon><path fill="#fde1d5" d="M9,48.584V50l2,4,2-4V48.584a5.016,5.016,0,0,1-4,0Z"></path><polygon fill="#223584" points="6.218 50.525 7 55 11 54 9 50 6.218 50.525"></polygon><polygon fill="#223584" points="15.782 50.525 15 55 11 54 13 50 15.782 50.525"></polygon><rect width="2" height="4" x="14" y="58" fill="#17256b"></rect><rect width="2" height="4" x="6" y="58" fill="#17256b"></rect><path fill="#fde1d5" d="M7.838,40H7v3a4.984,4.984,0,0,0,4.5,4.95A4.984,4.984,0,0,0,16,43V40l-4-3A4.387,4.387,0,0,1,7.838,40Z"></path><path fill="#ecb8ad" d="M47,41.236a5.231,5.231,0,0,1,.553-2.342h0A1.617,1.617,0,0,1,49,38h0a1.617,1.617,0,0,1,1.447.894l.106.212A1.617,1.617,0,0,0,52,40h0a1.617,1.617,0,0,0,1.447-.894l.106-.212A1.617,1.617,0,0,1,55,38h0a1.617,1.617,0,0,1,1.447.894h0A5.231,5.231,0,0,1,57,41.236V43a5,5,0,0,1-5,5h0a5,5,0,0,1-5-5Z"></path><path fill="#fde1d5" d="M52.5,47.95A4.984,4.984,0,0,0,57,43V41.236a5.231,5.231,0,0,0-.553-2.342,1.618,1.618,0,0,0-2.894,0l-.106.212a1.618,1.618,0,0,1-2.894,0l-.106-.212A1.594,1.594,0,0,0,48,38.365V43A4.984,4.984,0,0,0,52.5,47.95Z"></path><polygon fill="#dd4334" points="15.001 12 17.001 17 22 16.999 18.001 21 20.001 26 15.001 23 10.001 26 12.001 21 8.001 17 13.001 17 15.001 12"></polygon><polygon fill="#e47971" points="22 16.999 17.001 17 15.001 12 15.001 23 20.001 26 18.001 21 22 16.999"></polygon><polygon fill="#dd4334" points="32.001 2 34.001 7 39 6.999 35.001 11 37.001 16 32.001 13 27.001 16 29.001 11 25.001 7 30.001 7 32.001 2"></polygon><polygon fill="#e47971" points="39 6.999 34.001 7 32.001 2 32.001 13 37.001 16 35.001 11 39 6.999"></polygon><polygon fill="#dd4334" points="49.001 12 51.001 17 56 16.999 52.001 21 54.001 26 49.001 23 44.001 26 46.001 21 42.001 17 47.001 17 49.001 12"></polygon><polygon fill="#e47971" points="56 16.999 51.001 17 49.001 12 49.001 23 54.001 26 52.001 21 56 16.999"></polygon></svg>