<svg xmlns="http://www.w3.org/2000/svg" width="512" height="512" viewBox="0 0 512 512" id="girl"><path fill="#5f4d37" d="M384,360V152c0-37.56-14.33-71.56-37.49-96.17S291.34,16,256,16c-70.69,0-128,60.89-128,136V360Z"></path><path fill="#ffdaaa" d="M360,160v64c0,36.94-26.47,69.38-56,87.83C287.61,322.07,270.28,328,256,328s-31.61-5.93-48-16.17q-2.985-1.86-5.91-3.92A135.9,135.9,0,0,1,189,297.54c-21-18.82-37-44.82-37-73.54V160s80-32,104-56C256,104,304,144,360,160Z"></path><path fill="#971051" d="M496,496H16l18.75-73.63a80.021,80.021,0,0,1,60.44-56.31L128,359.64l.7-.13,31.3-6.12V376a96,96,0,0,0,192,0V353.39l32,6.25,32.81,6.42a80.021,80.021,0,0,1,60.44,56.31Z"></path><circle cx="208" cy="192" r="16" fill="#ffdaaa"></circle><circle cx="304" cy="192" r="16" fill="#ffdaaa"></circle><path fill="#ffdaaa" d="M380.01,176.029h12a0,0,0,0,1,0,0v64a0,0,0,0,1,0,0h-12a20,20,0,0,1-20-20v-24A20,20,0,0,1,380.01,176.029Z" transform="rotate(-179.985 376.01 208.028)"></path><path fill="#ffdaaa" d="M352,353.39V376a96,96,0,0,1-192,0V353.39L208,344V311.83C224.39,322.07,241.72,328,256,328s31.61-5.93,48-16.17V344Z"></path><g><path d="M503.75,494.03,485,420.4c-.02-.08-.04-.15-.06-.23a87.824,87.824,0,0,0-66.48-61.94c-.04-.01-.08-.01-.11-.02L392,353.06V239.6a27.861,27.861,0,0,0,8.01-19.56v-24a27.913,27.913,0,0,0-8.01-19.6V152c0-38.37-14.09-74.47-39.67-101.65C326.63,23.04,292.41,8,256,8,181.01,8,120,72.6,120,152V353.06l-26.35,5.15c-.03.01-.07.01-.11.02a87.824,87.824,0,0,0-66.48,61.94c-.02.08-.04.15-.06.23L8.25,494.03A7.99,7.99,0,0,0,16,504H496a7.99,7.99,0,0,0,7.75-9.97Zm-119.74-298v24a12.016,12.016,0,0,1-12,12H368l.02-48h4A12,12,0,0,1,384.01,196.03ZM216,344.02V325.38c13.85,6.81,27.82,10.62,40,10.62s26.15-3.81,40-10.62v18.64a8.011,8.011,0,0,0,6.46,7.83L344,359.97V376a88,88,0,0,1-176,0V359.97l41.54-8.12A8.011,8.011,0,0,0,216,344.02Zm-21.66-52.44C164.46,264.8,160,237.75,160,224V164.9c25.52-6.94,75.42-29.93,96.03-48.82,20.61,18.88,70.43,41.84,95.97,48.81V224c0,13.75-4.46,40.8-34.34,67.58C298.4,308.84,274.19,320,256,320S213.6,308.84,194.34,291.58ZM312,337.41v-21.3c23.65-15.86,44.62-40,52.59-68.08h7.42a27.658,27.658,0,0,0,3.99-.29V349.93ZM136,152c0-70.58,53.83-128,120-128,31.96,0,62.03,13.25,84.68,37.31C363.46,85.51,376,117.72,376,152v16.32a27.52,27.52,0,0,0-3.98-.29H368V160c0-.25-.02-.49-.04-.73a8,8,0,0,0-6.51-8.59c-11.04-2.03-33.18-10.61-53.85-20.88-22.85-11.34-40.05-22.85-44.9-30.02a8.07,8.07,0,0,0-13.33,0c-4.85,7.17-22.05,18.68-44.9,30.02-20.67,10.27-42.81,18.85-53.85,20.88A10.258,10.258,0,0,0,144,160v64c0,38.17,25.83,71.88,56,92.11v21.3l-64,12.52ZM400,488V456a8,8,0,0,0-16,0v32H128V456a8,8,0,0,0-16,0v32H26.29l16.18-63.54A71.854,71.854,0,0,1,96.79,373.9L152,363.1V376a104,104,0,0,0,208,0V363.1l55.21,10.8a71.854,71.854,0,0,1,54.32,50.56L485.71,488Z"></path><path d="M248,280h16a8,8,0,0,0,0-16H248a8,8,0,0,0,0,16Z"></path><circle cx="208" cy="192" r="16"></circle><circle cx="304" cy="192" r="16"></circle></g></svg>